<mxfile host="app.diagrams.net" modified="2021-09-16T08:05:40.212Z" agent="5.0 (Windows NT 10.0; Win64; x64) AppleWebKit/537.36 (KHTML, like Gecko) Chrome/93.0.4577.82 Safari/537.36" etag="pQ-A5qB7s72xMbbZqMz3" version="15.2.7" type="github">
  <diagram id="ZAGHhrm-wD6JYHUMJgfc" name="Page-1">
    <mxGraphModel dx="1102" dy="522" grid="1" gridSize="10" guides="1" tooltips="1" connect="1" arrows="1" fold="1" page="1" pageScale="1" pageWidth="850" pageHeight="1100" math="0" shadow="0">
      <root>
        <mxCell id="0" />
        <mxCell id="1" parent="0" />
        <mxCell id="3vZIbk5PL8b3pY2EDthd-1" value="Enemy Controller" style="swimlane;fontStyle=1;align=center;verticalAlign=top;childLayout=stackLayout;horizontal=1;startSize=26;horizontalStack=0;resizeParent=1;resizeParentMax=0;resizeLast=0;collapsible=1;marginBottom=0;" vertex="1" parent="1">
          <mxGeometry x="620" y="260" width="160" height="112" as="geometry">
            <mxRectangle x="320" y="90" width="130" height="26" as="alternateBounds" />
          </mxGeometry>
        </mxCell>
        <mxCell id="3vZIbk5PL8b3pY2EDthd-2" value="+ mesh: GameObject" style="text;strokeColor=none;fillColor=none;align=left;verticalAlign=top;spacingLeft=4;spacingRight=4;overflow=hidden;rotatable=0;points=[[0,0.5],[1,0.5]];portConstraint=eastwest;" vertex="1" parent="3vZIbk5PL8b3pY2EDthd-1">
          <mxGeometry y="26" width="160" height="26" as="geometry" />
        </mxCell>
        <mxCell id="3vZIbk5PL8b3pY2EDthd-5" value="+ health: Health" style="text;strokeColor=none;fillColor=none;align=left;verticalAlign=top;spacingLeft=4;spacingRight=4;overflow=hidden;rotatable=0;points=[[0,0.5],[1,0.5]];portConstraint=eastwest;" vertex="1" parent="3vZIbk5PL8b3pY2EDthd-1">
          <mxGeometry y="52" width="160" height="26" as="geometry" />
        </mxCell>
        <mxCell id="3vZIbk5PL8b3pY2EDthd-3" value="" style="line;strokeWidth=1;fillColor=none;align=left;verticalAlign=middle;spacingTop=-1;spacingLeft=3;spacingRight=3;rotatable=0;labelPosition=right;points=[];portConstraint=eastwest;" vertex="1" parent="3vZIbk5PL8b3pY2EDthd-1">
          <mxGeometry y="78" width="160" height="8" as="geometry" />
        </mxCell>
        <mxCell id="3vZIbk5PL8b3pY2EDthd-4" value="+ checkHealth(): void" style="text;strokeColor=none;fillColor=none;align=left;verticalAlign=top;spacingLeft=4;spacingRight=4;overflow=hidden;rotatable=0;points=[[0,0.5],[1,0.5]];portConstraint=eastwest;" vertex="1" parent="3vZIbk5PL8b3pY2EDthd-1">
          <mxGeometry y="86" width="160" height="26" as="geometry" />
        </mxCell>
        <mxCell id="3vZIbk5PL8b3pY2EDthd-14" value="Health" style="swimlane;fontStyle=1;align=center;verticalAlign=top;childLayout=stackLayout;horizontal=1;startSize=26;horizontalStack=0;resizeParent=1;resizeParentMax=0;resizeLast=0;collapsible=1;marginBottom=0;" vertex="1" parent="1">
          <mxGeometry x="620" y="430" width="160" height="164" as="geometry" />
        </mxCell>
        <mxCell id="3vZIbk5PL8b3pY2EDthd-15" value="+ health: int" style="text;strokeColor=none;fillColor=none;align=left;verticalAlign=top;spacingLeft=4;spacingRight=4;overflow=hidden;rotatable=0;points=[[0,0.5],[1,0.5]];portConstraint=eastwest;" vertex="1" parent="3vZIbk5PL8b3pY2EDthd-14">
          <mxGeometry y="26" width="160" height="26" as="geometry" />
        </mxCell>
        <mxCell id="3vZIbk5PL8b3pY2EDthd-18" value="+ maxHealth: int" style="text;strokeColor=none;fillColor=none;align=left;verticalAlign=top;spacingLeft=4;spacingRight=4;overflow=hidden;rotatable=0;points=[[0,0.5],[1,0.5]];portConstraint=eastwest;" vertex="1" parent="3vZIbk5PL8b3pY2EDthd-14">
          <mxGeometry y="52" width="160" height="26" as="geometry" />
        </mxCell>
        <mxCell id="3vZIbk5PL8b3pY2EDthd-16" value="" style="line;strokeWidth=1;fillColor=none;align=left;verticalAlign=middle;spacingTop=-1;spacingLeft=3;spacingRight=3;rotatable=0;labelPosition=right;points=[];portConstraint=eastwest;" vertex="1" parent="3vZIbk5PL8b3pY2EDthd-14">
          <mxGeometry y="78" width="160" height="8" as="geometry" />
        </mxCell>
        <mxCell id="3vZIbk5PL8b3pY2EDthd-17" value="+ Damage(int):void" style="text;strokeColor=none;fillColor=none;align=left;verticalAlign=top;spacingLeft=4;spacingRight=4;overflow=hidden;rotatable=0;points=[[0,0.5],[1,0.5]];portConstraint=eastwest;" vertex="1" parent="3vZIbk5PL8b3pY2EDthd-14">
          <mxGeometry y="86" width="160" height="26" as="geometry" />
        </mxCell>
        <mxCell id="3vZIbk5PL8b3pY2EDthd-19" value="+ HealthState():int" style="text;strokeColor=none;fillColor=none;align=left;verticalAlign=top;spacingLeft=4;spacingRight=4;overflow=hidden;rotatable=0;points=[[0,0.5],[1,0.5]];portConstraint=eastwest;" vertex="1" parent="3vZIbk5PL8b3pY2EDthd-14">
          <mxGeometry y="112" width="160" height="26" as="geometry" />
        </mxCell>
        <mxCell id="3vZIbk5PL8b3pY2EDthd-20" value="+ AddHealth(int):void" style="text;strokeColor=none;fillColor=none;align=left;verticalAlign=top;spacingLeft=4;spacingRight=4;overflow=hidden;rotatable=0;points=[[0,0.5],[1,0.5]];portConstraint=eastwest;" vertex="1" parent="3vZIbk5PL8b3pY2EDthd-14">
          <mxGeometry y="138" width="160" height="26" as="geometry" />
        </mxCell>
        <mxCell id="3vZIbk5PL8b3pY2EDthd-27" value="" style="endArrow=none;html=1;exitX=0.5;exitY=0;exitDx=0;exitDy=0;entryX=0.494;entryY=1;entryDx=0;entryDy=0;entryPerimeter=0;" edge="1" parent="1" source="3vZIbk5PL8b3pY2EDthd-14" target="3vZIbk5PL8b3pY2EDthd-4">
          <mxGeometry width="50" height="50" relative="1" as="geometry">
            <mxPoint x="694" y="420" as="sourcePoint" />
            <mxPoint x="700" y="390" as="targetPoint" />
            <Array as="points">
              <mxPoint x="699" y="390" />
            </Array>
          </mxGeometry>
        </mxCell>
        <mxCell id="3vZIbk5PL8b3pY2EDthd-48" value="" style="edgeStyle=orthogonalEdgeStyle;rounded=0;orthogonalLoop=1;jettySize=auto;html=1;endArrow=none;endFill=0;startArrow=none;" edge="1" parent="1" target="3vZIbk5PL8b3pY2EDthd-47">
          <mxGeometry relative="1" as="geometry">
            <mxPoint x="160" y="192" as="sourcePoint" />
          </mxGeometry>
        </mxCell>
        <mxCell id="3vZIbk5PL8b3pY2EDthd-38" value="Base Sate Data" style="swimlane;fontStyle=1;align=center;verticalAlign=top;childLayout=stackLayout;horizontal=1;startSize=26;horizontalStack=0;resizeParent=1;resizeParentMax=0;resizeLast=0;collapsible=1;marginBottom=0;" vertex="1" parent="1">
          <mxGeometry x="110" y="260" width="260" height="112" as="geometry" />
        </mxCell>
        <mxCell id="3vZIbk5PL8b3pY2EDthd-40" value="" style="line;strokeWidth=1;fillColor=none;align=left;verticalAlign=middle;spacingTop=-1;spacingLeft=3;spacingRight=3;rotatable=0;labelPosition=right;points=[];portConstraint=eastwest;" vertex="1" parent="3vZIbk5PL8b3pY2EDthd-38">
          <mxGeometry y="26" width="260" height="8" as="geometry" />
        </mxCell>
        <mxCell id="3vZIbk5PL8b3pY2EDthd-41" value="+ OnEnterState(States,Animator,Info): void" style="text;strokeColor=none;fillColor=none;align=left;verticalAlign=top;spacingLeft=4;spacingRight=4;overflow=hidden;rotatable=0;points=[[0,0.5],[1,0.5]];portConstraint=eastwest;" vertex="1" parent="3vZIbk5PL8b3pY2EDthd-38">
          <mxGeometry y="34" width="260" height="26" as="geometry" />
        </mxCell>
        <mxCell id="3vZIbk5PL8b3pY2EDthd-42" value="+ OnExitState(States,Animator,Info): void" style="text;strokeColor=none;fillColor=none;align=left;verticalAlign=top;spacingLeft=4;spacingRight=4;overflow=hidden;rotatable=0;points=[[0,0.5],[1,0.5]];portConstraint=eastwest;" vertex="1" parent="3vZIbk5PL8b3pY2EDthd-38">
          <mxGeometry y="60" width="260" height="26" as="geometry" />
        </mxCell>
        <mxCell id="3vZIbk5PL8b3pY2EDthd-43" value="+ OnUpdateState(States,Animator,Info): void" style="text;strokeColor=none;fillColor=none;align=left;verticalAlign=top;spacingLeft=4;spacingRight=4;overflow=hidden;rotatable=0;points=[[0,0.5],[1,0.5]];portConstraint=eastwest;" vertex="1" parent="3vZIbk5PL8b3pY2EDthd-38">
          <mxGeometry y="86" width="260" height="26" as="geometry" />
        </mxCell>
        <mxCell id="3vZIbk5PL8b3pY2EDthd-44" value="States" style="swimlane;fontStyle=1;align=center;verticalAlign=top;childLayout=stackLayout;horizontal=1;startSize=26;horizontalStack=0;resizeParent=1;resizeParentMax=0;resizeLast=0;collapsible=1;marginBottom=0;" vertex="1" parent="1">
          <mxGeometry x="180" y="120" width="300" height="86" as="geometry" />
        </mxCell>
        <mxCell id="3vZIbk5PL8b3pY2EDthd-45" value="+ states: BaseStateData" style="text;strokeColor=none;fillColor=none;align=left;verticalAlign=top;spacingLeft=4;spacingRight=4;overflow=hidden;rotatable=0;points=[[0,0.5],[1,0.5]];portConstraint=eastwest;" vertex="1" parent="3vZIbk5PL8b3pY2EDthd-44">
          <mxGeometry y="26" width="300" height="26" as="geometry" />
        </mxCell>
        <mxCell id="3vZIbk5PL8b3pY2EDthd-46" value="" style="line;strokeWidth=1;fillColor=none;align=left;verticalAlign=middle;spacingTop=-1;spacingLeft=3;spacingRight=3;rotatable=0;labelPosition=right;points=[];portConstraint=eastwest;" vertex="1" parent="3vZIbk5PL8b3pY2EDthd-44">
          <mxGeometry y="52" width="300" height="8" as="geometry" />
        </mxCell>
        <mxCell id="3vZIbk5PL8b3pY2EDthd-47" value="+GetEnemyController(Animator):EnemyController" style="text;strokeColor=none;fillColor=none;align=left;verticalAlign=top;spacingLeft=4;spacingRight=4;overflow=hidden;rotatable=0;points=[[0,0.5],[1,0.5]];portConstraint=eastwest;" vertex="1" parent="3vZIbk5PL8b3pY2EDthd-44">
          <mxGeometry y="60" width="300" height="26" as="geometry" />
        </mxCell>
        <mxCell id="3vZIbk5PL8b3pY2EDthd-49" value="0..n" style="text;html=1;align=center;verticalAlign=middle;resizable=0;points=[];autosize=1;strokeColor=none;fillColor=none;" vertex="1" parent="1">
          <mxGeometry x="240" y="240" width="40" height="20" as="geometry" />
        </mxCell>
        <mxCell id="3vZIbk5PL8b3pY2EDthd-51" value="" style="edgeStyle=orthogonalEdgeStyle;rounded=0;orthogonalLoop=1;jettySize=auto;html=1;endArrow=none;endFill=0;" edge="1" parent="1" source="3vZIbk5PL8b3pY2EDthd-38">
          <mxGeometry relative="1" as="geometry">
            <mxPoint x="240" y="260" as="sourcePoint" />
            <mxPoint x="160" y="192" as="targetPoint" />
          </mxGeometry>
        </mxCell>
        <mxCell id="3vZIbk5PL8b3pY2EDthd-53" value="1" style="text;html=1;align=center;verticalAlign=middle;resizable=0;points=[];autosize=1;strokeColor=none;fillColor=none;" vertex="1" parent="1">
          <mxGeometry x="160" y="170" width="20" height="20" as="geometry" />
        </mxCell>
        <mxCell id="3vZIbk5PL8b3pY2EDthd-56" value="Projectile Shoot" style="swimlane;fontStyle=1;align=center;verticalAlign=top;childLayout=stackLayout;horizontal=1;startSize=26;horizontalStack=0;resizeParent=1;resizeParentMax=0;resizeLast=0;collapsible=1;marginBottom=0;" vertex="1" parent="1">
          <mxGeometry x="120" y="420" width="260" height="190" as="geometry">
            <mxRectangle x="20" y="320" width="120" height="26" as="alternateBounds" />
          </mxGeometry>
        </mxCell>
        <mxCell id="3vZIbk5PL8b3pY2EDthd-57" value="+ damage: int" style="text;strokeColor=none;fillColor=none;align=left;verticalAlign=top;spacingLeft=4;spacingRight=4;overflow=hidden;rotatable=0;points=[[0,0.5],[1,0.5]];portConstraint=eastwest;" vertex="1" parent="3vZIbk5PL8b3pY2EDthd-56">
          <mxGeometry y="26" width="260" height="26" as="geometry" />
        </mxCell>
        <mxCell id="3vZIbk5PL8b3pY2EDthd-61" value="+ controller: EnemyController" style="text;strokeColor=none;fillColor=none;align=left;verticalAlign=top;spacingLeft=4;spacingRight=4;overflow=hidden;rotatable=0;points=[[0,0.5],[1,0.5]];portConstraint=eastwest;" vertex="1" parent="3vZIbk5PL8b3pY2EDthd-56">
          <mxGeometry y="52" width="260" height="26" as="geometry" />
        </mxCell>
        <mxCell id="3vZIbk5PL8b3pY2EDthd-58" value="" style="line;strokeWidth=1;fillColor=none;align=left;verticalAlign=middle;spacingTop=-1;spacingLeft=3;spacingRight=3;rotatable=0;labelPosition=right;points=[];portConstraint=eastwest;" vertex="1" parent="3vZIbk5PL8b3pY2EDthd-56">
          <mxGeometry y="78" width="260" height="8" as="geometry" />
        </mxCell>
        <mxCell id="3vZIbk5PL8b3pY2EDthd-59" value="+ ShootProjectile(int,EnemyController):void" style="text;strokeColor=none;fillColor=none;align=left;verticalAlign=top;spacingLeft=4;spacingRight=4;overflow=hidden;rotatable=0;points=[[0,0.5],[1,0.5]];portConstraint=eastwest;" vertex="1" parent="3vZIbk5PL8b3pY2EDthd-56">
          <mxGeometry y="86" width="260" height="26" as="geometry" />
        </mxCell>
        <mxCell id="3vZIbk5PL8b3pY2EDthd-90" value="+ OnEnterState(States,Animator,Info): void" style="text;strokeColor=none;fillColor=none;align=left;verticalAlign=top;spacingLeft=4;spacingRight=4;overflow=hidden;rotatable=0;points=[[0,0.5],[1,0.5]];portConstraint=eastwest;" vertex="1" parent="3vZIbk5PL8b3pY2EDthd-56">
          <mxGeometry y="112" width="260" height="26" as="geometry" />
        </mxCell>
        <mxCell id="3vZIbk5PL8b3pY2EDthd-91" value="+ OnExitState(States,Animator,Info): void" style="text;strokeColor=none;fillColor=none;align=left;verticalAlign=top;spacingLeft=4;spacingRight=4;overflow=hidden;rotatable=0;points=[[0,0.5],[1,0.5]];portConstraint=eastwest;" vertex="1" parent="3vZIbk5PL8b3pY2EDthd-56">
          <mxGeometry y="138" width="260" height="26" as="geometry" />
        </mxCell>
        <mxCell id="3vZIbk5PL8b3pY2EDthd-92" value="+ OnUpdateState(States,Animator,Info): void" style="text;strokeColor=none;fillColor=none;align=left;verticalAlign=top;spacingLeft=4;spacingRight=4;overflow=hidden;rotatable=0;points=[[0,0.5],[1,0.5]];portConstraint=eastwest;" vertex="1" parent="3vZIbk5PL8b3pY2EDthd-56">
          <mxGeometry y="164" width="260" height="26" as="geometry" />
        </mxCell>
        <mxCell id="3vZIbk5PL8b3pY2EDthd-65" value="" style="edgeStyle=orthogonalEdgeStyle;rounded=0;orthogonalLoop=1;jettySize=auto;html=1;endArrow=block;endFill=0;entryX=0;entryY=0.5;entryDx=0;entryDy=0;" edge="1" parent="1" target="3vZIbk5PL8b3pY2EDthd-43">
          <mxGeometry relative="1" as="geometry">
            <mxPoint x="40" y="920" as="sourcePoint" />
            <mxPoint x="370" y="359" as="targetPoint" />
          </mxGeometry>
        </mxCell>
        <mxCell id="3vZIbk5PL8b3pY2EDthd-93" value="" style="endArrow=none;html=1;edgeStyle=orthogonalEdgeStyle;strokeColor=default;entryX=0;entryY=0;entryDx=0;entryDy=0;entryPerimeter=0;" edge="1" parent="1" target="3vZIbk5PL8b3pY2EDthd-5">
          <mxGeometry relative="1" as="geometry">
            <mxPoint x="510" y="920" as="sourcePoint" />
            <mxPoint x="500" y="570" as="targetPoint" />
          </mxGeometry>
        </mxCell>
        <mxCell id="3vZIbk5PL8b3pY2EDthd-95" value="1" style="edgeLabel;resizable=0;html=1;align=right;verticalAlign=bottom;fontSize=13;" connectable="0" vertex="1" parent="3vZIbk5PL8b3pY2EDthd-93">
          <mxGeometry x="1" relative="1" as="geometry">
            <mxPoint x="-10" y="-13" as="offset" />
          </mxGeometry>
        </mxCell>
        <mxCell id="3vZIbk5PL8b3pY2EDthd-98" value="" style="endArrow=none;html=1;edgeStyle=orthogonalEdgeStyle;fontSize=13;strokeColor=default;exitX=1.008;exitY=0.058;exitDx=0;exitDy=0;exitPerimeter=0;" edge="1" parent="1" source="3vZIbk5PL8b3pY2EDthd-56">
          <mxGeometry relative="1" as="geometry">
            <mxPoint x="340" y="470" as="sourcePoint" />
            <mxPoint x="510" y="421" as="targetPoint" />
          </mxGeometry>
        </mxCell>
        <mxCell id="3vZIbk5PL8b3pY2EDthd-99" value="1" style="edgeLabel;resizable=0;html=1;align=left;verticalAlign=bottom;" connectable="0" vertex="1" parent="3vZIbk5PL8b3pY2EDthd-98">
          <mxGeometry x="-1" relative="1" as="geometry">
            <mxPoint x="3" as="offset" />
          </mxGeometry>
        </mxCell>
        <mxCell id="3vZIbk5PL8b3pY2EDthd-101" value="" style="endArrow=none;html=1;edgeStyle=orthogonalEdgeStyle;fontSize=13;strokeColor=default;entryX=-0.012;entryY=0.231;entryDx=0;entryDy=0;entryPerimeter=0;" edge="1" parent="1" target="3vZIbk5PL8b3pY2EDthd-57">
          <mxGeometry relative="1" as="geometry">
            <mxPoint x="40" y="442" as="sourcePoint" />
            <mxPoint x="500" y="470" as="targetPoint" />
          </mxGeometry>
        </mxCell>
        <mxCell id="3vZIbk5PL8b3pY2EDthd-104" value="" style="endArrow=none;html=1;edgeStyle=orthogonalEdgeStyle;fontSize=13;strokeColor=default;entryX=0;entryY=0.5;entryDx=0;entryDy=0;" edge="1" parent="1" target="3vZIbk5PL8b3pY2EDthd-106">
          <mxGeometry relative="1" as="geometry">
            <mxPoint x="40" y="679" as="sourcePoint" />
            <mxPoint x="120.00000000000011" y="680.006" as="targetPoint" />
          </mxGeometry>
        </mxCell>
        <mxCell id="3vZIbk5PL8b3pY2EDthd-105" value="Tri Attack" style="swimlane;fontStyle=1;align=center;verticalAlign=top;childLayout=stackLayout;horizontal=1;startSize=26;horizontalStack=0;resizeParent=1;resizeParentMax=0;resizeLast=0;collapsible=1;marginBottom=0;" vertex="1" parent="1">
          <mxGeometry x="114" y="640" width="260" height="190" as="geometry">
            <mxRectangle x="20" y="320" width="120" height="26" as="alternateBounds" />
          </mxGeometry>
        </mxCell>
        <mxCell id="3vZIbk5PL8b3pY2EDthd-106" value="+ damage: int" style="text;strokeColor=none;fillColor=none;align=left;verticalAlign=top;spacingLeft=4;spacingRight=4;overflow=hidden;rotatable=0;points=[[0,0.5],[1,0.5]];portConstraint=eastwest;" vertex="1" parent="3vZIbk5PL8b3pY2EDthd-105">
          <mxGeometry y="26" width="260" height="26" as="geometry" />
        </mxCell>
        <mxCell id="3vZIbk5PL8b3pY2EDthd-107" value="+ controller: EnemyController" style="text;strokeColor=none;fillColor=none;align=left;verticalAlign=top;spacingLeft=4;spacingRight=4;overflow=hidden;rotatable=0;points=[[0,0.5],[1,0.5]];portConstraint=eastwest;" vertex="1" parent="3vZIbk5PL8b3pY2EDthd-105">
          <mxGeometry y="52" width="260" height="26" as="geometry" />
        </mxCell>
        <mxCell id="3vZIbk5PL8b3pY2EDthd-108" value="" style="line;strokeWidth=1;fillColor=none;align=left;verticalAlign=middle;spacingTop=-1;spacingLeft=3;spacingRight=3;rotatable=0;labelPosition=right;points=[];portConstraint=eastwest;" vertex="1" parent="3vZIbk5PL8b3pY2EDthd-105">
          <mxGeometry y="78" width="260" height="8" as="geometry" />
        </mxCell>
        <mxCell id="3vZIbk5PL8b3pY2EDthd-109" value="+ ShootTriProjectile(int,EnemyController):void" style="text;strokeColor=none;fillColor=none;align=left;verticalAlign=top;spacingLeft=4;spacingRight=4;overflow=hidden;rotatable=0;points=[[0,0.5],[1,0.5]];portConstraint=eastwest;" vertex="1" parent="3vZIbk5PL8b3pY2EDthd-105">
          <mxGeometry y="86" width="260" height="26" as="geometry" />
        </mxCell>
        <mxCell id="3vZIbk5PL8b3pY2EDthd-110" value="+ OnEnterState(States,Animator,Info): void" style="text;strokeColor=none;fillColor=none;align=left;verticalAlign=top;spacingLeft=4;spacingRight=4;overflow=hidden;rotatable=0;points=[[0,0.5],[1,0.5]];portConstraint=eastwest;" vertex="1" parent="3vZIbk5PL8b3pY2EDthd-105">
          <mxGeometry y="112" width="260" height="26" as="geometry" />
        </mxCell>
        <mxCell id="3vZIbk5PL8b3pY2EDthd-111" value="+ OnExitState(States,Animator,Info): void" style="text;strokeColor=none;fillColor=none;align=left;verticalAlign=top;spacingLeft=4;spacingRight=4;overflow=hidden;rotatable=0;points=[[0,0.5],[1,0.5]];portConstraint=eastwest;" vertex="1" parent="3vZIbk5PL8b3pY2EDthd-105">
          <mxGeometry y="138" width="260" height="26" as="geometry" />
        </mxCell>
        <mxCell id="3vZIbk5PL8b3pY2EDthd-112" value="+ OnUpdateState(States,Animator,Info): void" style="text;strokeColor=none;fillColor=none;align=left;verticalAlign=top;spacingLeft=4;spacingRight=4;overflow=hidden;rotatable=0;points=[[0,0.5],[1,0.5]];portConstraint=eastwest;" vertex="1" parent="3vZIbk5PL8b3pY2EDthd-105">
          <mxGeometry y="164" width="260" height="26" as="geometry" />
        </mxCell>
        <mxCell id="3vZIbk5PL8b3pY2EDthd-113" value="" style="endArrow=none;html=1;edgeStyle=orthogonalEdgeStyle;fontSize=13;strokeColor=default;exitX=0.996;exitY=0.192;exitDx=0;exitDy=0;exitPerimeter=0;curved=1;" edge="1" parent="1" source="3vZIbk5PL8b3pY2EDthd-106">
          <mxGeometry relative="1" as="geometry">
            <mxPoint x="379.99999999999994" y="670.02" as="sourcePoint" />
            <mxPoint x="510" y="670" as="targetPoint" />
          </mxGeometry>
        </mxCell>
        <mxCell id="3vZIbk5PL8b3pY2EDthd-114" value="1" style="edgeLabel;resizable=0;html=1;align=left;verticalAlign=bottom;" connectable="0" vertex="1" parent="3vZIbk5PL8b3pY2EDthd-113">
          <mxGeometry x="-1" relative="1" as="geometry">
            <mxPoint x="3" as="offset" />
          </mxGeometry>
        </mxCell>
        <mxCell id="3vZIbk5PL8b3pY2EDthd-115" value="" style="endArrow=none;html=1;edgeStyle=orthogonalEdgeStyle;fontSize=13;strokeColor=default;entryX=0;entryY=0.5;entryDx=0;entryDy=0;" edge="1" parent="1" target="3vZIbk5PL8b3pY2EDthd-117">
          <mxGeometry relative="1" as="geometry">
            <mxPoint x="40" y="919" as="sourcePoint" />
            <mxPoint x="120" y="930" as="targetPoint" />
          </mxGeometry>
        </mxCell>
        <mxCell id="3vZIbk5PL8b3pY2EDthd-116" value="BigBang" style="swimlane;fontStyle=1;align=center;verticalAlign=top;childLayout=stackLayout;horizontal=1;startSize=26;horizontalStack=0;resizeParent=1;resizeParentMax=0;resizeLast=0;collapsible=1;marginBottom=0;" vertex="1" parent="1">
          <mxGeometry x="114" y="880" width="260" height="190" as="geometry">
            <mxRectangle x="20" y="320" width="120" height="26" as="alternateBounds" />
          </mxGeometry>
        </mxCell>
        <mxCell id="3vZIbk5PL8b3pY2EDthd-117" value="+ damage: int" style="text;strokeColor=none;fillColor=none;align=left;verticalAlign=top;spacingLeft=4;spacingRight=4;overflow=hidden;rotatable=0;points=[[0,0.5],[1,0.5]];portConstraint=eastwest;" vertex="1" parent="3vZIbk5PL8b3pY2EDthd-116">
          <mxGeometry y="26" width="260" height="26" as="geometry" />
        </mxCell>
        <mxCell id="3vZIbk5PL8b3pY2EDthd-118" value="+ controller: EnemyController" style="text;strokeColor=none;fillColor=none;align=left;verticalAlign=top;spacingLeft=4;spacingRight=4;overflow=hidden;rotatable=0;points=[[0,0.5],[1,0.5]];portConstraint=eastwest;" vertex="1" parent="3vZIbk5PL8b3pY2EDthd-116">
          <mxGeometry y="52" width="260" height="26" as="geometry" />
        </mxCell>
        <mxCell id="3vZIbk5PL8b3pY2EDthd-119" value="" style="line;strokeWidth=1;fillColor=none;align=left;verticalAlign=middle;spacingTop=-1;spacingLeft=3;spacingRight=3;rotatable=0;labelPosition=right;points=[];portConstraint=eastwest;" vertex="1" parent="3vZIbk5PL8b3pY2EDthd-116">
          <mxGeometry y="78" width="260" height="8" as="geometry" />
        </mxCell>
        <mxCell id="3vZIbk5PL8b3pY2EDthd-120" value="+ StartBigBang(int,EnemyController):void" style="text;strokeColor=none;fillColor=none;align=left;verticalAlign=top;spacingLeft=4;spacingRight=4;overflow=hidden;rotatable=0;points=[[0,0.5],[1,0.5]];portConstraint=eastwest;" vertex="1" parent="3vZIbk5PL8b3pY2EDthd-116">
          <mxGeometry y="86" width="260" height="26" as="geometry" />
        </mxCell>
        <mxCell id="3vZIbk5PL8b3pY2EDthd-121" value="+ OnEnterState(States,Animator,Info): void" style="text;strokeColor=none;fillColor=none;align=left;verticalAlign=top;spacingLeft=4;spacingRight=4;overflow=hidden;rotatable=0;points=[[0,0.5],[1,0.5]];portConstraint=eastwest;" vertex="1" parent="3vZIbk5PL8b3pY2EDthd-116">
          <mxGeometry y="112" width="260" height="26" as="geometry" />
        </mxCell>
        <mxCell id="3vZIbk5PL8b3pY2EDthd-122" value="+ OnExitState(States,Animator,Info): void" style="text;strokeColor=none;fillColor=none;align=left;verticalAlign=top;spacingLeft=4;spacingRight=4;overflow=hidden;rotatable=0;points=[[0,0.5],[1,0.5]];portConstraint=eastwest;" vertex="1" parent="3vZIbk5PL8b3pY2EDthd-116">
          <mxGeometry y="138" width="260" height="26" as="geometry" />
        </mxCell>
        <mxCell id="3vZIbk5PL8b3pY2EDthd-123" value="+ OnUpdateState(States,Animator,Info): void" style="text;strokeColor=none;fillColor=none;align=left;verticalAlign=top;spacingLeft=4;spacingRight=4;overflow=hidden;rotatable=0;points=[[0,0.5],[1,0.5]];portConstraint=eastwest;" vertex="1" parent="3vZIbk5PL8b3pY2EDthd-116">
          <mxGeometry y="164" width="260" height="26" as="geometry" />
        </mxCell>
        <mxCell id="3vZIbk5PL8b3pY2EDthd-124" value="" style="endArrow=none;html=1;edgeStyle=orthogonalEdgeStyle;fontSize=13;strokeColor=default;exitX=1;exitY=0.5;exitDx=0;exitDy=0;" edge="1" parent="1" source="3vZIbk5PL8b3pY2EDthd-117">
          <mxGeometry relative="1" as="geometry">
            <mxPoint x="370.00000000000006" y="960.992" as="sourcePoint" />
            <mxPoint x="510" y="919" as="targetPoint" />
          </mxGeometry>
        </mxCell>
        <mxCell id="3vZIbk5PL8b3pY2EDthd-125" value="1" style="edgeLabel;resizable=0;html=1;align=left;verticalAlign=bottom;" connectable="0" vertex="1" parent="3vZIbk5PL8b3pY2EDthd-124">
          <mxGeometry x="-1" relative="1" as="geometry">
            <mxPoint x="3" as="offset" />
          </mxGeometry>
        </mxCell>
        <mxCell id="3vZIbk5PL8b3pY2EDthd-126" value="Enemy Attacks" style="text;strokeColor=none;fillColor=none;html=1;fontSize=24;fontStyle=1;verticalAlign=middle;align=center;" vertex="1" parent="1">
          <mxGeometry x="320" y="50" width="190" height="40" as="geometry" />
        </mxCell>
      </root>
    </mxGraphModel>
  </diagram>
</mxfile>
